<svg xmlns="http://www.w3.org/2000/svg" fill="none" viewBox="0 0 12 10"><path fill="#9D9D9D" d="M8.355 0c.883 0 1.69.357 2.272 1.005.551.615.854 1.436.854 2.312 0 .952-.377 1.836-1.178 2.772-.33.386-.74.792-1.269 1.265-.405.364-.754.66-1.604 1.372-.658.55-.958.804-1.352 1.142l-.014.013a.495.495 0 01-.646 0l-.014-.012a122.6 122.6 0 00-1.352-1.142c-.85-.712-1.2-1.01-1.605-1.373-.528-.473-.938-.88-1.268-1.265C.377 5.153 0 4.269 0 3.317c0-.876.303-1.697.855-2.312A3.013 3.013 0 013.126 0c.578 0 1.091.157 1.542.443a3.4 3.4 0 01.928.892c.102.146.054.073.145.218.09-.145.043-.072.144-.218.256-.354.564-.66.929-.892C7.264.157 7.778 0 8.355 0zm0 .963a1.85 1.85 0 00-1.025.301 2.43 2.43 0 00-.645.628 3.52 3.52 0 00-.478.934.49.49 0 01-.466.333.49.49 0 01-.466-.333 3.52 3.52 0 00-.479-.934 2.43 2.43 0 00-.645-.628A1.85 1.85 0 003.126.963c-.598 0-1.143.24-1.536.679-.392.437-.61 1.032-.61 1.675 0 .74.318 1.425.993 2.202.304.348.681.72 1.174 1.16.383.342.716.624 1.54 1.315.352.294.705.588 1.054.886.349-.297.7-.592 1.053-.886.824-.69 1.157-.973 1.54-1.316.493-.44.87-.81 1.174-1.16.675-.776.993-1.461.993-2.201 0-.643-.217-1.238-.61-1.675a2.034 2.034 0 00-1.536-.68z"/></svg>