<svg xmlns="http://www.w3.org/2000/svg" fill="none" viewBox="0 0 143 49"><path fill="#00C12C" d="M10.346 47.586V34.832h15.212v-9.015H10.346v-3.38h15.571v-9.015H0v34.164h10.346zM47.173 48.2c10.551 0 18.695-7.171 18.695-17.671s-8.144-17.67-18.695-17.67-18.695 7.17-18.695 17.67c0 10.5 8.144 17.671 18.695 17.671zm0-9.117c-4.968 0-8.195-3.79-8.195-8.554 0-4.763 3.227-8.553 8.195-8.553s8.195 3.79 8.195 8.553c0 4.764-3.227 8.554-8.195 8.554zM86.407 48.2c10.552 0 18.695-7.171 18.695-17.671s-8.143-17.67-18.695-17.67c-10.551 0-18.695 7.17-18.695 17.67 0 10.5 8.144 17.671 18.695 17.671zm0-9.117c-4.968 0-8.195-3.79-8.195-8.554 0-4.763 3.227-8.553 8.195-8.553 4.969 0 8.195 3.79 8.195 8.553 0 4.764-3.226 8.554-8.195 8.554zM124.105 47.586c10.705 0 18.695-6.198 18.695-17.108s-7.99-17.056-18.746-17.056H108.79v34.164h15.315zm-.051-9.015h-4.917V22.437h4.968c5.532 0 8.195 3.431 8.195 8.041 0 4.303-3.073 8.093-8.246 8.093z"/><path fill="#000" d="M.334 2.024h.657c.056 0 .102.046.102.102v4.229a.073.073 0 01-.072.071H.328a.218.218 0 00-.217.217v1.475c0 .125.102.227.227.227h3.686a.245.245 0 00.243-.245V6.586a.162.162 0 00-.16-.162h-.732a.087.087 0 01-.089-.087V2.118c0-.053.043-.095.096-.095h.649a.236.236 0 00.235-.236V.332A.227.227 0 004.04.105H.333a.222.222 0 00-.222.223v1.473c0 .125.1.223.223.223zM11.274 4.553L8.067.215a.28.28 0 00-.221-.108H6.334a.221.221 0 00-.222.222V8.12c0 .123.101.226.224.226h1.746a.226.226 0 00.224-.226V4.123c0-.042.052-.06.078-.027L11.5 8.24a.273.273 0 00.214.106l1.623.028c.112 0 .205-.09.205-.202V.347a.24.24 0 00-.24-.24H11.59a.242.242 0 00-.242.243v4.179c0 .038-.049.055-.074.024zM30.474.243l-1.669 3.261a.049.049 0 01-.086 0L27.05.24a.254.254 0 00-.223-.133h-2.136c-.13 0-.21.139-.145.252l3.12 5.592v2.144c0 .138.11.25.248.25h1.724c.121 0 .221-.1.221-.223V5.95L32.986.348a.16.16 0 00-.14-.241h-2.143a.26.26 0 00-.229.136zM40.621 7.597l-.2-1.642c-.062-.772-.585-1.208-1.023-1.344-.025-.009-.031-.038-.007-.05.226-.13 1.108-.85 1.108-2.086 0-1.172-.835-2.369-2.293-2.369h-4.124a.173.173 0 00-.174.173v7.916a.15.15 0 00.149.149h1.896c.082 0 .15-.068.15-.153V5.606c0-.051.041-.092.092-.092h1.134c.471 0 .801.355.882.91.121.834.076 1.477.381 1.799a.193.193 0 00.138.054h2.052c.081 0 .119-.1.059-.153-.11-.099-.189-.227-.22-.527zm-4.517-3.985V2.124c0-.071.057-.129.13-.129h1.275c.423 0 .753.395.753.846 0 .484-.286.886-.753.886h-1.29a.116.116 0 01-.115-.115zM45.707 0a4.226 4.226 0 10-.002 8.452A4.226 4.226 0 0045.707 0zm0 6.155a1.926 1.926 0 010-3.851 1.925 1.925 0 010 3.851zM19.458 3.538L17.406.25a.304.304 0 00-.257-.143H15.64a.216.216 0 00-.216.215v7.782c0 .134.108.242.242.242h1.706a.246.246 0 00.246-.247V4.358c0-.024.03-.032.043-.013l1.345 2.428c.06.09.161.145.269.145h.577c.094 0 .184-.05.236-.128l1.346-2.427c.015-.025.053-.014.053.016v3.722c0 .134.11.245.245.245h1.725a.226.226 0 00.226-.225V.336a.23.23 0 00-.229-.229h-1.468a.352.352 0 00-.299.165l-2.035 3.265a.115.115 0 01-.194.001zM55.077 0a4.227 4.227 0 100 8.449 4.227 4.227 0 000-8.449zm0 6.155a1.926 1.926 0 010-3.851 1.925 1.925 0 010 3.851zM64.373 3.538L62.322.25a.305.305 0 00-.257-.143h-1.509a.216.216 0 00-.216.215v7.782c0 .134.108.242.243.242h1.705a.247.247 0 00.247-.247V4.358c0-.024.031-.032.043-.013l1.345 2.428c.059.09.161.145.269.145H64.77c.094 0 .183-.05.235-.128l1.346-2.427a.029.029 0 01.053.016v3.722c0 .134.11.245.245.245h1.725a.226.226 0 00.226-.225V.336a.23.23 0 00-.228-.229h-1.47a.356.356 0 00-.299.165l-2.035 3.265c-.047.071-.151.071-.195.001z"/></svg>