<svg xmlns="http://www.w3.org/2000/svg" fill="none" viewBox="0 0 92 11"><path fill="#000" fill-rule="evenodd" d="M.316 2.562h.928a.14.14 0 01.143.136v5.646c0 .05-.045.094-.101.094H.308c-.17 0-.307.13-.307.29v1.969c0 .167.143.303.32.303h5.208c.19 0 .344-.148.344-.327V8.65a.221.221 0 00-.227-.215H4.613c-.07 0-.126-.052-.126-.117V2.688a.13.13 0 01.135-.128h.917c.183 0 .333-.14.333-.315V.302A.311.311 0 005.552 0H.314A.305.305 0 000 .297v1.967c0 .166.142.298.316.298zM15.216 5.916L10.78.144A.394.394 0 0010.474 0H8.382a.3.3 0 00-.307.296v10.366c0 .164.14.3.31.3H10.8c.17 0 .31-.135.31-.3V5.344c0-.056.072-.08.107-.036l4.31 5.513c.072.088.18.141.297.141L18.07 11c.155 0 .283-.12.283-.269V.32a.325.325 0 00-.331-.32h-2.368a.33.33 0 00-.336.323v5.56c0 .051-.068.074-.101.033zM40.537.182l-2.309 4.354a.07.07 0 01-.119 0L35.8.178a.353.353 0 00-.31-.177h-2.957c-.179 0-.29.185-.2.336l4.32 7.466v2.863c0 .184.152.334.342.334h2.386a.303.303 0 00.306-.297V7.802l4.33-7.48C44.1.179 43.993 0 43.822 0h-2.968a.361.361 0 00-.317.182zM53.98 10.003l-.273-2.194a2.015 2.015 0 00-1.402-1.794c-.035-.011-.043-.05-.01-.067.31-.172 1.518-1.134 1.518-2.785C53.813 1.598 52.668 0 50.67 0h-5.653a.235.235 0 00-.238.231v10.57c0 .108.093.199.205.199h2.598a.205.205 0 00.206-.204V7.344c0-.068.057-.123.126-.123h1.554c.646 0 1.098.474 1.21 1.216.165 1.113.104 1.972.522 2.402a.266.266 0 00.19.071h2.812c.11 0 .163-.133.08-.203-.151-.133-.26-.303-.301-.704zM47.79 4.681V2.695c0-.095.079-.173.178-.173h1.749c.58 0 1.03.528 1.03 1.13 0 .647-.391 1.183-1.03 1.183h-1.769a.157.157 0 01-.158-.154zM60.564 0a5.503 5.503 0 00-5.507 5.5c0 3.037 2.464 5.5 5.507 5.5a5.502 5.502 0 005.504-5.5c0-3.038-2.465-5.5-5.504-5.5zm0 8.01a2.507 2.507 0 010-5.012 2.506 2.506 0 010 5.013zM25.932 4.58L23.197.19a.405.405 0 00-.342-.19h-2.013a.288.288 0 00-.287.287v10.39c0 .179.144.323.322.323h2.275a.329.329 0 00.328-.33V5.676c0-.033.04-.043.057-.018L25.331 8.9c.079.12.213.193.357.193h.771a.384.384 0 00.314-.17l1.794-3.24c.02-.034.072-.02.072.02v4.97c0 .179.146.327.326.327h2.3a.302.302 0 00.301-.3V.306A.306.306 0 0031.261 0h-1.958a.467.467 0 00-.398.22l-2.714 4.36a.153.153 0 01-.259 0zM73.043 0a5.504 5.504 0 00-5.507 5.5c0 3.037 2.466 5.5 5.507 5.5a5.503 5.503 0 005.505-5.5c0-3.038-2.466-5.5-5.505-5.5zm0 8.01a2.507 2.507 0 010-5.012 2.506 2.506 0 010 5.012zM86.127 4.58L83.393.19A.404.404 0 0083.05 0h-2.013c-.159 0-.288.13-.288.287v10.39c0 .179.144.323.324.323h2.274a.33.33 0 00.33-.33V5.676c0-.033.04-.043.056-.018L85.528 8.9c.078.12.213.193.357.193h.771a.38.38 0 00.313-.17l1.794-3.24a.039.039 0 01.072.02v4.97c0 .179.146.327.327.327h2.299c.165 0 .3-.135.3-.3V.306A.306.306 0 0091.459 0h-1.96a.473.473 0 00-.398.22l-2.714 4.36c-.062.095-.2.095-.259 0z" clip-rule="evenodd"/></svg>