<svg xmlns="http://www.w3.org/2000/svg" viewBox="0 0 57.806 55.053"><path fill="#C00" d="M52.404.012l.223.037c2.533.764 6.437 14.796 4.783 28.892a35.41 35.41 0 01-4.38 13.418c-.045.09-.019.043-.08.141l-.242.428-.015-.019c-.707 1.194-1.477 2.347-2.426 3.342l.006.007c-3.627 4.193-8.49 6.907-13.73 7.971-.761.202-.291.091-1.419.288-.807.164-.477.123-.982.172-1.524.309-3.084.331-4.63.364l-.321-.006-.288.006C6.131 55.053 1.265 36.342.396 28.939-1.258 14.843 2.645.811 5.177.049c2.161-.653 11.438 5.415 15.632 10.534 0 0 3.751-1.707 8.094-1.707 4.341 0 8.094 1.707 8.094 1.707C42.773 4.238 50.318.258 52.404.012z"/></svg>