<svg xmlns="http://www.w3.org/2000/svg" viewBox="0 0 258.796 55.053"><path fill="#C00" d="M52.404.012l.223.037c2.533.764 6.437 14.796 4.783 28.892a35.41 35.41 0 01-4.38 13.418c-.045.09-.019.043-.08.141l-.242.428-.015-.019c-.707 1.194-1.477 2.347-2.426 3.342l.006.007c-3.627 4.193-8.49 6.907-13.73 7.971-.761.202-.291.091-1.419.288-.807.164-.477.123-.982.172-1.524.309-3.084.331-4.63.364l-.321-.006-.288.006C6.131 55.053 1.265 36.342.396 28.939-1.258 14.843 2.645.811 5.177.049c2.161-.653 11.438 5.415 15.632 10.534 0 0 3.751-1.707 8.094-1.707 4.341 0 8.094 1.707 8.094 1.707C42.773 4.238 50.318.258 52.404.012z"/><path d="M78.762 16.076a.55.55 0 01.55.551v21.195a.55.55 0 01-.55.551h-3.028a.551.551 0 01-.551-.551V16.627c0-.304.247-.551.551-.551h3.028zM88.154 16.076c.167 0 .324.076.429.206L100.32 30.87V16.627a.552.552 0 01.551-.551h3.028a.55.55 0 01.55.551v21.195a.55.55 0 01-.55.551h-2.483a.551.551 0 01-.429-.206L89.249 23.579v14.243a.55.55 0 01-.55.551h-3.028a.551.551 0 01-.551-.551V16.627c0-.304.247-.551.551-.551h2.483zM113.291 16.076a.55.55 0 01.473.27l8.365 14.094 8.249-14.091a.55.55 0 01.475-.273h2.483a.55.55 0 01.55.55l.031 21.196a.551.551 0 01-.551.551h-2.907a.55.55 0 01-.55-.55l-.027-13.449-6.641 11.156a.55.55 0 01-.473.269h-1.393a.55.55 0 01-.472-.267l-6.638-11.072v13.362a.55.55 0 01-.55.551h-2.907a.55.55 0 01-.55-.551V16.627a.55.55 0 01.55-.551h2.483zM140.765 16.076c.193 0 .371.101.471.265l6.313 10.4 6.341-10.401a.552.552 0 01.47-.264h2.998c.429 0 .693.47.471.837l-8.338 13.736v7.173a.55.55 0 01-.55.551h-2.998a.551.551 0 01-.551-.551v-7.233l-8.337-13.676a.551.551 0 01.47-.837h3.24zM169.42 16.076c5.794 0 9.392 3.008 9.392 7.939-.007 3.276-1.534 5.453-4.365 6.938l4.628 6.552a.55.55 0 01-.45.868h-3.3a.552.552 0 01-.451-.234l-4.394-6.257c-.352.029-.706.037-1.06.041h-4.688v5.899a.55.55 0 01-.55.551h-3.028a.55.55 0 01-.55-.551l-.001-21.195a.552.552 0 01.551-.551h8.266zm-.091 3.736h-4.597v8.437h4.597c3.542 0 5.354-1.494 5.354-4.234 0-2.731-1.802-4.203-5.354-4.203zM193.286 15.834c6.754 0 11.784 4.849 11.784 11.391 0 6.541-5.03 11.39-11.784 11.39-6.795 0-11.845-4.86-11.845-11.39 0-6.531 5.05-11.391 11.845-11.391zm0 3.796c-4.455 0-7.716 3.211-7.716 7.595s3.261 7.594 7.716 7.594c4.402 0 7.655-3.219 7.655-7.594 0-4.376-3.253-7.595-7.655-7.595zM219.271 15.834c6.754 0 11.784 4.849 11.784 11.391 0 6.541-5.03 11.39-11.784 11.39-6.795 0-11.845-4.86-11.845-11.39 0-6.531 5.05-11.391 11.845-11.391zm0 3.796c-4.455 0-7.716 3.211-7.716 7.595s3.261 7.594 7.716 7.594c4.403 0 7.655-3.219 7.655-7.594 0-4.376-3.252-7.595-7.655-7.595zM238.17 16.076c.195 0 .375.103.474.27l8.365 14.094 8.248-14.091a.551.551 0 01.475-.273h2.483c.304 0 .55.246.551.55l.03 21.196a.55.55 0 01-.551.551h-2.906a.551.551 0 01-.551-.55l-.026-13.449-6.641 11.156a.55.55 0 01-.473.269h-1.393a.55.55 0 01-.472-.267l-6.638-11.072v13.362a.551.551 0 01-.551.551h-2.907a.55.55 0 01-.55-.551V16.627a.55.55 0 01.55-.551h2.483z"/></svg>