<svg xmlns="http://www.w3.org/2000/svg" viewBox="0 0 33 31"><g fill="#FFF" fill-rule="evenodd"><path d="M20.119 24.312c0 .517.358 1.026 1.017 1.026 1.196 0 2.005-1.477 2.286-2.761-1.275-.398-3.305.339-3.303 1.735z"/><path d="M29.792.485C28.576.14 23.359 4.244 21 6.947c0 0-2.11-.902-4.552-.902-2.443 0-4.553.902-4.553.902C9.536 4.244 4.318.14 3.103.485 1.678.888-.517 9.197.413 16.64c.49 3.91 3.226 13.79 16.035 13.79 5.894 0 9.637-2.046 12.02-4.644-.71-.784-1.821-1.8-2.71-2.219-.64 2.09-2.268 3.948-4.868 3.948-2.104 0-3.732-1.216-3.703-3.154.028-1.881 1.852-3.766 5.43-3.714.396.006.764.034 1.118.072.103-.7.171-1.44.21-2.184-.197.205-1.442 1.362-2.999 1.34-.982-.014-1.727-.475-1.993-1.323-.048.035-1.16 1.216-2.763 1.251-1.323.03-2.156-.622-2.069-2.63.07-1.64.053-2.74.053-2.74-.495-.29-1.338-.164-1.552.733-.157.65-.257 2.74-.064 4.324 0 0-.783.248-1.412.24-1.322-.018-1.485-.624-1.457-1.574.068-2.235.087-3.787.087-3.787-.635-.293-1.37-.154-1.551.732-.137.667-.226 2.74-.064 4.325 0 0-.795.247-1.412.24-1.179-.018-1.493-.615-1.458-1.576.13-3.454.267-5.4.09-6.05.115-.07.767-.363 1.4-.353 1.074.016 1.766.995 1.837 1.1.623-.564 1.502-1.052 2.56-1.036 1.14.017 1.77.99 1.838 1.1 1.65-1.555 3.964-1.415 3.93.952 0 0-.031 2.301.05 3.066.113 1.082 1.509.574 1.895.232.178-2.094.257-4.092.042-4.86.116-.07.767-.364 1.4-.354 1.119.018 1.538.885 1.502 1.532-.099 1.825-.119 2.858-.083 3.522.022.4.223.709.776.717.567.009 1.222-.342 1.462-.619v-.557c-.015-1.745-.15-3.305-.303-4.173.117-.069.767-.362 1.4-.353 1.12.017 1.407.903 1.503 1.532.38 2.478.116 5.38-.298 7.88 1.55.624 2.801 1.785 3.545 2.66 1.787-2.714 2.427-5.644 2.645-7.387.93-7.444-1.266-15.753-2.69-16.156z"/></g></svg>