<svg xmlns="http://www.w3.org/2000/svg" viewBox="0 0 28 28"><g fill="#FFF" fill-rule="nonzero"><path d="M27.94 26.74l-2.54-2.388 1.647-3.073a.19.19 0 00-.057-.243.188.188 0 00-.249.024l-2.388 2.54-3.074-1.647a.19.19 0 00-.219.306l2.542 2.389-1.647 3.072a.19.19 0 00.056.245.19.19 0 00.249-.025l2.388-2.54 3.073 1.646a.19.19 0 00.219-.306zM23.106 5.146l-1.308 2.44a.28.28 0 00.451.325l1.899-2.017L26.586 7.2a.28.28 0 00.325-.451l-2.016-1.897 1.308-2.44a.282.282 0 00-.084-.36.282.282 0 00-.368.035l-1.897 2.017-2.44-1.308a.281.281 0 00-.326.453l2.018 1.896zM7.681 21.33l-2.736.383-1.079-2.542a.281.281 0 00-.332-.161.281.281 0 00-.203.31l.382 2.734-2.543 1.08a.28.28 0 00.149.535l2.736-.383 1.079 2.543a.28.28 0 00.535-.148l-.382-2.736 2.543-1.08a.28.28 0 00-.149-.535zM.185 2.866l2.197.605-.015 2.273a.252.252 0 00.496.07l.604-2.194 2.278.015a.253.253 0 00.069-.496l-2.196-.607.014-2.277a.252.252 0 00-.496-.069L2.53 2.383.254 2.368a.254.254 0 00-.069.497zM17.176 14.338l8.653-1.144a.196.196 0 000-.389l-8.653-1.144 1.267-3.575a.418.418 0 00-.533-.532l-3.572 1.268-1.144-8.65A.196.196 0 0013 0a.197.197 0 00-.195.171l-1.143 8.652-3.576-1.27a.415.415 0 00-.533.533l1.269 3.576L.17 12.805a.197.197 0 000 .39l8.65 1.142-1.268 3.575a.415.415 0 00.533.532l3.576-1.267 1.143 8.652a.196.196 0 00.39 0l1.143-8.652 3.574 1.268c.151.055.32.016.434-.098a.414.414 0 00.098-.434l-1.268-3.575z"/></g></svg>