<svg xmlns="http://www.w3.org/2000/svg" viewBox="0 0 20 15"><g fill="none" fill-rule="evenodd"><rect width="20" height="15" fill="#FFF" rx="2"/><path fill="#999" fill-rule="nonzero" d="M17.626 0H2.374C1.064 0 0 1.01 0 2.251V12.75C0 13.99 1.065 15 2.374 15h15.252C18.936 15 20 13.99 20 12.749V2.25C20 1.01 18.935 0 17.626 0zm0 13.013H2.374c-.193 0-.361-.124-.361-.264v-9.11L8.91 9.39a.792.792 0 00.506.183h1.165a.792.792 0 00.507-.183l6.898-5.751v9.11c0 .14-.168.264-.36.264zM10 7.6L3.29 1.987h13.42L10 7.6z"/></g></svg>