<svg xmlns="http://www.w3.org/2000/svg" viewBox="0 0 26 20"><g fill="#FFF" fill-rule="nonzero"><path d="M2.455 6.19c.324.227 1.3.9 2.927 2.02a716.024 716.024 0 013.74 2.585c.095.066.297.21.606.432.31.222.567.402.771.539.205.136.452.29.743.46.29.17.564.297.82.382.258.085.495.128.714.128H12.805c.219 0 .457-.043.714-.128.257-.085.53-.212.82-.382.29-.17.538-.324.743-.46.205-.137.461-.317.77-.54.31-.221.512-.365.608-.431.875-.605 3.102-2.14 6.68-4.605a6.756 6.756 0 001.742-1.743c.466-.68.7-1.393.7-2.14 0-.623-.227-1.156-.679-1.6A2.215 2.215 0 0023.297.04H2.284C1.551.04.987.286.592.777.197 1.27 0 1.883 0 2.62c0 .595.262 1.24.785 1.934.523.695 1.08 1.24 1.67 1.637z"/><path d="M24.154 7.706c-3.122 2.097-5.492 3.726-7.11 4.888-.542.397-.982.706-1.32.928-.338.222-.787.449-1.349.68-.561.232-1.084.347-1.57.347H12.776c-.485 0-1.008-.115-1.57-.347-.561-.231-1.011-.458-1.349-.68a33.81 33.81 0 01-1.32-.928c-1.285-.935-3.65-2.564-7.095-4.888A7.546 7.546 0 010 6.473v11.25c0 .624.224 1.157.67 1.601.448.445.986.667 1.614.667h21.013c.628 0 1.166-.222 1.613-.667.448-.444.671-.977.671-1.6V6.473c-.409.453-.885.864-1.427 1.232z"/></g></svg>