<svg xmlns="http://www.w3.org/2000/svg" fill="none" viewBox="0 0 22 17"><path fill="#000" d="M19.747 17h.315c.49 0 .942-.257 1.18-.67a3.497 3.497 0 000-3.535 1.361 1.361 0 00-1.18-.67H20v-1.393c0-3.614-2.262-6.83-5.687-8.177l.02-.368a1.54 1.54 0 00-.698-1.36l-.046-.03a4.947 4.947 0 00-5.443.037 1.607 1.607 0 00-.232.191 1.511 1.511 0 00-.447 1.147l.005.117.012.237c-3.47 1.329-5.762 4.557-5.762 8.206v1.393H1.66c-.49 0-.942.257-1.18.67a3.497 3.497 0 000 3.535c.238.413.69.67 1.18.67h18.086zM1.86 15.497h-.077a2.042 2.042 0 010-1.87h16.518a.777.777 0 00.722-.473.726.726 0 00.056-.277.765.765 0 00-.778-.752H3.278v-1.393c0-2.85 1.684-5.389 4.282-6.597l.275 5.769c.02.414.384.737.813.716.429-.02.76-.371.74-.785l-.367-7.733c-.001-.015.006-.03.02-.038a3.339 3.339 0 013.672-.026l.046.03a.045.045 0 01.02.04l-.05.92-.37 6.801a.762.762 0 00.778.791c.41 0 .754-.31.776-.712l.312-5.743c2.56 1.221 4.22 3.747 4.22 6.567v1.393h-.912a.765.765 0 00-.778.751c0 .098.02.192.055.278a.778.778 0 00.723.474h2.406a2.042 2.042 0 010 1.87H1.86z"/></svg>