<svg xmlns="http://www.w3.org/2000/svg" fill="none" viewBox="0 0 21 16"><path fill="#000" d="M11.822 0c1.506 0 2.796.97 3.135 2.36l.046.19h3.157c1.405 0 2.546 1.082 2.546 2.414v8.508c0 1.395-1.195 2.528-2.666 2.528H2.666C1.195 16 0 14.867 0 13.472V4.964C0 3.634 1.142 2.55 2.546 2.55h3.153l.046-.192C6.088.97 7.378 0 8.88 0h2.942zm0 1.314H8.88c-.857 0-1.588.55-1.784 1.34l-.17.7c-.073.3-.351.51-.674.51H2.546c-.641 0-1.16.492-1.16 1.1v8.508c0 .67.573 1.214 1.28 1.214h15.37c.707 0 1.28-.543 1.28-1.214V4.964c0-.608-.52-1.1-1.16-1.1h-3.707a.688.688 0 01-.673-.51l-.17-.7c-.196-.79-.928-1.34-1.784-1.34zm-1.47 3.784c2.456 0 4.456 1.897 4.456 4.224 0 2.328-2 4.225-4.455 4.225-2.457 0-4.455-1.894-4.455-4.225 0-2.33 1.998-4.224 4.455-4.224zm0 1.314c-1.69 0-3.069 1.307-3.069 2.91 0 1.604 1.379 2.91 3.07 2.91 1.691 0 3.07-1.306 3.07-2.91 0-1.603-1.379-2.91-3.07-2.91z"/></svg>