<svg xmlns="http://www.w3.org/2000/svg" fill="none" viewBox="0 0 28 15"><path fill="#000" d="M22.997 0c1.168 0 2.119.93 2.119 2.077v2.651c1.18.163 2.014 1.155 2.071 2.315v7.128a.835.835 0 01-.839.829h-3.115a.836.836 0 01-.84-.831v-1.68l-17.598-.005v1.687a.835.835 0 01-.84.829H.84a.836.836 0 01-.84-.83V7.047c.005-1.136.846-2.046 1.934-2.294V2.076C1.934.93 2.885 0 4.054 0h8.071l.113.003c.49.03.943.221 1.309.545.382-.367.902-.523 1.423-.548h8.027zm1.793 6.086c-.553.008-.975.42-1.003.962v6.567h2.007V7.048c0-.528-.45-.962-1.004-.962zm-22.392 0c-.553.008-.975.42-1.004.962v6.567h2.007V7.723l-.005-.052-.002-.021.002-.021.005-.053v-.528c0-.528-.449-.962-1.003-.962zm2.397 2.256V11.1l17.597.005V8.348l-8.841-.002h-.002l-8.754-.003zm10.172-6.957a.714.714 0 00-.72.73l.003.174.004.231-.233-.016-.174-.011-.647-.044-.15-.01-.2-.014v-.348c0-.38-.323-.692-.724-.692H4.053c-.4 0-.725.312-.725.692v2.808c.869.316 1.387 1.19 1.46 2.072l17.61.005c.043-.83.542-1.67 1.323-2.015v-2.87c0-.38-.323-.692-.724-.692h-8.03z"/></svg>