<svg xmlns="http://www.w3.org/2000/svg" fill="none" viewBox="0 0 26 20"><path fill="#030104" d="M13.342 7.286c-2.087 0-3.779 1.631-3.779 3.643 0 2.012 1.692 3.642 3.78 3.642 2.086 0 3.778-1.63 3.778-3.642s-1.692-3.643-3.779-3.643zM23.42 3.643h-3.023c-.416 0-.863-.311-.995-.691L18.62.69C18.488.31 18.04 0 17.625 0H9.059c-.415 0-.863.31-.995.691l-.781 2.26c-.132.381-.58.692-.995.692H3.265c-1.386 0-2.52 1.093-2.52 2.428V17c0 1.336 1.134 2.429 2.52 2.429h20.154c1.386 0 2.52-1.093 2.52-2.429V6.071c0-1.335-1.134-2.428-2.52-2.428zM13.342 17c-3.478 0-6.298-2.718-6.298-6.071 0-3.353 2.82-6.072 6.298-6.072s6.298 2.719 6.298 6.072S16.82 17 13.342 17zm9.196-9.23c-.487 0-.882-.38-.882-.85s.395-.85.882-.85.881.38.881.85-.394.85-.881.85z"/></svg>