<svg xmlns="http://www.w3.org/2000/svg" fill="none" viewBox="0 0 22 20"><path fill="#000" d="M19.05 3.646l-2.308-.012L14.53.338A.732.732 0 0013.925 0H7.966a.729.729 0 00-.592.326L5.089 3.634l-2.14.012A2.96 2.96 0 000 6.592v9.526c0 1.618 1.33 2.97 2.95 2.97h16.1c1.62 0 2.95-1.352 2.95-2.97V6.592a2.96 2.96 0 00-2.95-2.946zm1.5 12.472c0 .821-.677 1.522-1.5 1.522H2.95c-.822 0-1.5-.7-1.5-1.522V6.592c0-.82.678-1.497 1.5-1.497h2.526c.242 0 .46-.133.592-.326l2.285-3.308h5.186l2.2 3.284a.747.747 0 00.592.326l2.708.024c.822 0 1.498.676 1.498 1.497v9.526h.012z"/><path fill="#000" d="M11.06 5.385a5.138 5.138 0 00-5.137 5.131c0 2.825 2.31 5.131 5.138 5.131s5.137-2.306 5.137-5.13c0-2.826-2.309-5.132-5.137-5.132zm0 8.813a3.692 3.692 0 01-3.686-3.682 3.692 3.692 0 013.687-3.682 3.692 3.692 0 013.687 3.682 3.692 3.692 0 01-3.687 3.682z"/></svg>