<svg xmlns="http://www.w3.org/2000/svg" fill="none" viewBox="0 0 18 22"><path fill="#000" d="M14.02 11.172a.86.86 0 00-.861-.86H4.297a.86.86 0 100 1.72h8.862a.86.86 0 00.86-.86z"/><path fill="#000" d="M3.442 22A3.443 3.443 0 010 18.562V3.438A3.443 3.443 0 013.442 0H14.02a3.443 3.443 0 013.441 3.437v15.126A3.443 3.443 0 0114.02 22H3.442zM1.72 18.562c0 .948.772 1.72 1.72 1.72H14.02c.949 0 1.72-.772 1.72-1.72V3.438c0-.947-.771-1.718-1.72-1.718H3.442c-.95 0-1.721.77-1.721 1.718v15.126z"/><path fill="#000" d="M13.159 6.875H4.297a.86.86 0 100 1.719h8.862a.86.86 0 100-1.719zM3.458 14.266c0 .474.386.859.86.859h8.863a.86.86 0 100-1.719H4.319a.86.86 0 00-.86.86zM4.319 18.305h8.862a.86.86 0 100-1.719H4.319a.86.86 0 100 1.719z"/></svg>