<svg xmlns="http://www.w3.org/2000/svg" viewBox="0 0 65.436 65.436"><path fill="#FFBC00" d="M30.095 56.936l-6.446-7.144-9.41-2.011.493-9.609L9.5 30.096l7.144-6.447 2.011-9.41 9.61.493L36.34 9.5l6.447 7.144 9.41 2.011-.493 9.61 5.232 8.076-7.144 6.446-2.011 9.41-9.61-.493z"/><path fill="none" stroke="#FFBC00" stroke-width="4" d="M30.095 56.936l-6.446-7.144-9.41-2.011.493-9.609L9.5 30.096l7.144-6.447 2.011-9.41 9.61.493L36.34 9.5l6.447 7.144 9.41 2.011-.493 9.61 5.232 8.076-7.144 6.446-2.011 9.41-9.61-.493z"/><text transform="rotate(-14.98 140.486 -107.882)"><tspan x="-11.127" y="4" font-family="HelveticaNeue-Bold" font-size="11">ХИТ</tspan></text></svg>