<svg xmlns="http://www.w3.org/2000/svg" viewBox="0 0 53 51"><path fill-rule="evenodd" d="M33.939 21.526a2.858 2.858 0 00-.575-1.409l2.124-13.112a.94.94 0 00-.72-1.064l-.023-.005a.944.944 0 00-1.116.643l-3.869 12.71a2.89 2.89 0 00-1.615 2.582 2.91 2.91 0 002.914 2.9c.3 0 .583-.059.855-.143l8.082 4.179a.976.976 0 001.265-.332l.013-.019a.964.964 0 00-.21-1.284l-7.125-5.646zm-4.32.345c0-.79.647-1.432 1.44-1.432.794 0 1.44.642 1.44 1.432 0 .79-.646 1.432-1.44 1.432-.793 0-1.44-.642-1.44-1.432zm23.381 0c0 9.705-6.402 17.947-15.225 20.776v-3.108c7.166-2.705 12.276-9.603 12.276-17.668 0-10.418-8.52-18.893-18.992-18.893-10.472 0-18.992 8.475-18.992 18.893 0 1.045.09 2.069.255 3.068H9.339a21.794 21.794 0 01-.22-3.068C9.118 9.835 18.96.044 31.058.044 43.158.044 53 9.835 53 21.871zM34.884 37.423l-6.754-6.646a2.283 2.283 0 00-1.608-.66h-3.406v-1.269c0-.946-.774-1.709-1.725-1.709H1.718A1.71 1.71 0 000 28.85V40.29h35.562v-1.247a2.27 2.27 0 00-.678-1.621zm-2.942.22h-6.54a.264.264 0 01-.266-.264v-5.025c0-.146.118-.264.266-.264h1.246c.066 0 .14.03.191.074l5.287 5.024c.177.161.06.455-.184.455zm3.621 3.593v3.785c0 .945-.77 1.71-1.719 1.71h-1.839a4.714 4.714 0 00-4.67-4.012 4.713 4.713 0 00-4.663 4.012H13.35a4.713 4.713 0 00-4.664-4.012 4.713 4.713 0 00-4.664 4.012H1.719c-.95 0-1.719-.765-1.719-1.71v-3.785h35.563zm-8.222 2.627c-1.969 0-3.569 1.584-3.569 3.542 0 1.959 1.6 3.55 3.569 3.55a3.556 3.556 0 003.561-3.55 3.55 3.55 0 00-3.561-3.542zm0 5.318a1.776 1.776 0 01-1.785-1.775 1.781 1.781 0 013.562 0c0 .982-.797 1.775-1.777 1.775zM8.686 43.863c-1.969 0-3.569 1.584-3.569 3.542 0 1.959 1.6 3.55 3.57 3.55a3.556 3.556 0 003.56-3.55 3.55 3.55 0 00-3.56-3.542zm0 5.318a1.776 1.776 0 01-1.784-1.775c0-.976.796-1.775 1.784-1.775.98 0 1.784.799 1.784 1.775 0 .982-.803 1.775-1.784 1.775z"/></svg>