<svg xmlns="http://www.w3.org/2000/svg" fill="none" viewBox="0 0 19 19"><path fill="#CCC" fill-rule="evenodd" d="M18.46 16.27l-3.693-3.744c.89-1.303 1.336-2.755 1.336-4.355 0-1.041-.2-2.036-.598-2.986A7.687 7.687 0 0013.89 2.73a7.572 7.572 0 00-2.423-1.637A7.363 7.363 0 008.522.486a7.361 7.361 0 00-2.945.606A7.571 7.571 0 003.154 2.73 7.69 7.69 0 001.54 5.185a7.64 7.64 0 00-.598 2.986c0 1.04.2 2.035.598 2.985.398.95.937 1.768 1.615 2.455a7.575 7.575 0 002.423 1.638 7.363 7.363 0 002.945.605c1.58 0 3.011-.45 4.296-1.353l3.694 3.733c.258.276.58.414.969.414.373 0 .696-.138.969-.414.272-.277.409-.604.409-.983 0-.385-.133-.713-.398-.982zm-6.223-4.334c-1.002 1.016-2.207 1.523-3.617 1.523-1.41 0-2.615-.508-3.616-1.523C4.002 10.921 3.5 9.7 3.5 8.27c0-1.428.501-2.65 1.503-3.666C6.005 3.59 7.21 3.081 8.62 3.081c1.41 0 2.615.508 3.617 1.523 1.002 1.016 1.502 2.238 1.502 3.666 0 1.429-.5 2.65-1.502 3.666z" clip-rule="evenodd"/></svg>